<?xml version="1.0" encoding="UTF-8"?>
<svg version="1.1" xmlns="http://www.w3.org/2000/svg" width="1200" height="2094">
<path d="M0 0 C1.40170281 0.00222385 2.80340569 0.00440029 4.20510864 0.00653076 C24.24397533 0.04869825 44.09906742 0.37490739 63.99224854 3.03710938 C66.21947558 3.33338133 68.44818677 3.61629706 70.67724609 3.8984375 C135.69635833 12.22950766 198.14572423 31.25414298 257.43359375 59.08398438 C259.80321255 60.19133224 262.18013578 61.27979914 264.5625 62.359375 C276.38617281 67.75010729 287.75071117 73.92561954 299.0625 80.3125 C300.17206055 80.93801758 301.28162109 81.56353516 302.42480469 82.20800781 C320.93841908 92.68404152 338.66005559 104.08569913 356.0625 116.3125 C356.96661621 116.94736328 357.87073242 117.58222656 358.80224609 118.23632812 C368.79918829 125.28934988 378.53628282 132.63667743 388.0625 140.3125 C389.45662109 141.43205078 389.45662109 141.43205078 390.87890625 142.57421875 C401.88425133 151.49703856 412.5870524 160.7749636 423.0625 170.3125 C423.94301025 171.10817383 424.82352051 171.90384766 425.73071289 172.72363281 C432.60571275 178.96926838 439.28314013 185.37558696 445.8371582 191.95678711 C447.38834727 193.51339389 448.94489392 195.06450171 450.50195312 196.61523438 C455.89988142 202.00957672 461.10750374 207.5049217 466.0625 213.3125 C467.53784536 214.94097017 469.0164343 216.56651517 470.5 218.1875 C474.90100329 223.07586271 479.01169809 228.13234264 483.0625 233.3125 C484.10259824 234.62260733 485.14298647 235.93248446 486.18359375 237.2421875 C539.43157778 304.59634912 577.15308707 383.9476949 610.44922256 587.58149719 C610.4372483 589.79656114 610.43031627 592.01159667 610.42440796 594.22668457 C610.35101151 618.02154789 609.61253693 641.64060986 607.0625 665.3125 C606.97764343 666.12176941 606.89278687 666.93103882 606.80535889 667.76483154 C598.31225026 748.67120579 575.81709395 826.06100741 503.52587891 974.70654297 C501.8603339 977.6725135 500.21651095 980.6499991 498.57421875 983.62890625 C485.08935456 1008.06026561 471.17417847 1032.2383198 457.0625 1056.3125 C456.05810111 1058.02713477 455.05370281 1059.74176988 454.04933167 1061.4564209 C450.48334908 1067.54383011 446.91472112 1073.62968498 443.34510803 1079.71496582 C440.78182724 1084.0850649 438.22054559 1088.45633133 435.66015625 1092.828125 C429.25035546 1103.77146485 422.8354877 1114.71146478 416.375 1125.625 C410.14412931 1136.1522228 403.97960044 1146.71756811 397.82421875 1157.2890625 C396.08297583 1160.27735966 394.33888208 1163.26397264 392.59375 1166.25 C376.5649039 1193.68059927 360.79269964 1221.24625785 345.29272461 1248.97900391 C342.47100629 1254.02485418 339.64029636 1259.06503542 336.78125 1264.08984375 C329.26625205 1277.29881473 321.99214017 1290.62265462 314.82421875 1304.02294922 C312.51109818 1308.34209925 310.18645857 1312.65498666 307.8605957 1316.96728516 C306.70120975 1319.11840355 305.5435009 1321.27042667 304.38745117 1323.42333984 C301.37292247 1329.03706406 298.33857095 1334.63852403 295.26953125 1340.22265625 C286.6886564 1355.9078091 279.03413316 1371.83978514 272.0625 1388.3125 C271.57668457 1389.4586377 271.09086914 1390.60477539 270.59033203 1391.78564453 C267.9475696 1398.03681076 265.32770016 1404.29717732 262.71875 1410.5625 C260.0765568 1416.90630215 257.40451327 1423.23702827 254.71875 1429.5625 C231.26055417 1484.8312146 208.79520291 1540.48474837 187.98779297 1596.80877686 C187.0597808 1599.31985782 186.12959553 1601.83012635 185.19921875 1604.34033203 C146.60168934 1708.60423574 114.04617047 1814.84384454 65.9074707 2002.84753418 C63.84470292 2011.30631248 61.77761867 2019.76392599 59.68667603 2028.21578979 C59.24048296 2030.02493305 58.79695202 2031.83473569 58.35653687 2033.64529419 C56.18634903 2042.56584706 53.84131197 2051.37846764 50.96875 2060.1015625 C50.61132973 2061.19406563 50.61132973 2061.19406563 50.24668884 2062.30863953 C46.10378319 2074.52425559 39.75194249 2084.45115267 28.25 2090.6875 C22.74370936 2093.26900284 18.09281606 2094.21182694 12.0625 2094.3125 C11.38316406 2094.40789063 10.70382812 2094.50328125 10.00390625 2094.6015625 C1.00718406 2095.51994246 -8.72306436 2090.53391293 -15.72265625 2085.18359375 C-35.12466434 2065.51534884 -38.55276221 2027.23729667 -44.68804932 2001.21331787 C-46.74544798 1992.49117352 -48.83468462 1983.77661657 -50.92578125 1975.0625 C-51.13688286 1974.1825021 -51.34798447 1973.3025042 -51.56548309 1972.39583969 C-72.72100886 1884.28338463 -97.32684707 1796.8721463 -132.24853516 1691.30566406 C-133.82307249 1686.65872988 -135.38105294 1682.00633084 -136.93829346 1677.35357666 C-157.04623363 1617.31330474 -179.10631252 1557.9744747 -202.9375 1499.3125 C-203.27096436 1498.49086365 -203.60442871 1497.66922729 -203.94799805 1496.82269287 C-218.49145239 1460.9940934 -233.34078993 1425.29586154 -248.5625 1389.75 C-248.92859375 1388.89452576 -249.2946875 1388.03905151 -249.671875 1387.15765381 C-251.74687832 1382.31233781 -253.83159556 1377.47138083 -255.92990112 1372.6361084 C-256.60079327 1371.08897425 -257.26984589 1369.54104111 -257.93704224 1367.99230957 C-262.70052847 1356.95178791 -267.92800746 1346.2742555 -273.625 1335.6875 C-274.42086088 1334.19791325 -275.21626342 1332.70808154 -276.01123047 1331.21801758 C-277.96027921 1327.56908067 -279.9170137 1323.92434715 -281.87774658 1320.28167725 C-282.84405234 1318.48613945 -283.80859536 1316.68965329 -284.77294922 1314.89306641 C-292.7032491 1300.1260599 -300.79269452 1285.44610926 -308.91101074 1270.78186035 C-310.57123885 1267.78292508 -312.23010914 1264.78326366 -313.88476562 1261.78125 C-320.99394906 1248.88450865 -328.20176862 1236.06324335 -335.66845703 1223.36987305 C-340.04083115 1215.91324908 -344.2612819 1208.38048297 -348.4375 1200.8125 C-354.81502141 1189.26605406 -361.38419711 1177.84648147 -368.07470703 1166.47900391 C-370.05239925 1163.11718634 -372.02498017 1159.75239547 -373.99609375 1156.38671875 C-376.8565787 1151.50302883 -379.71844361 1146.62015258 -382.58203125 1141.73828125 C-386.51557284 1135.03222551 -390.44760393 1128.32528546 -394.37911987 1121.61804199 C-395.4370002 1119.81335264 -396.49497445 1118.00871838 -397.55297852 1116.20410156 C-400.77881112 1110.70176569 -404.00418118 1105.19916069 -407.22761536 1099.69541931 C-409.04731497 1096.5884594 -410.86731194 1093.48167378 -412.6875 1090.375 C-413.0435733 1089.76725739 -413.39964661 1089.15951477 -413.76651001 1088.53335571 C-418.36918124 1080.67891556 -422.98762713 1072.83401545 -427.625 1065 C-434.44869556 1053.4682294 -441.2081347 1041.89954661 -447.9375 1030.3125 C-448.54883789 1029.2601416 -449.16017578 1028.2077832 -449.79003906 1027.12353516 C-468.31012207 995.21282413 -486.20694425 962.98892637 -503.00457764 930.13543701 C-503.9530415 928.2821318 -504.90434735 926.43030491 -505.85595703 924.57861328 C-540.66355256 856.74853877 -566.94723032 784.97983131 -586.1875 665.375 C-586.2647229 664.68035645 -586.3419458 663.98571289 -586.42150879 663.27001953 C-589.31104002 636.85954664 -590.35101458 610.48258145 -590.3125 583.9375 C-590.31214123 582.83240963 -590.31214123 582.83240963 -590.31177521 581.7049942 C-590.30183567 557.39165186 -589.57194481 533.39248246 -585.9375 509.3125 C-585.82859436 508.58144043 -585.71968872 507.85038086 -585.60748291 507.09716797 C-571.97588313 416.3355613 -536.99227329 329.21254156 -460.9375 224.3125 C-460.04515282 223.24644525 -459.15324952 222.18001885 -458.26171875 221.11328125 C-452.62301695 214.3858755 -446.85335209 207.7985547 -440.9375 201.3125 C-440.17824219 200.46042969 -439.41898438 199.60835937 -438.63671875 198.73046875 C-432.54128373 191.95249668 -426.18587736 185.45528911 -419.75 179 C-418.90655029 178.15195801 -418.06310059 177.30391602 -417.1940918 176.43017578 C-412.83371427 172.08049909 -408.40662797 167.87982032 -403.7355957 163.86547852 C-401.13645191 161.62065113 -398.63805622 159.27833279 -396.125 156.9375 C-391.55586664 152.72100096 -386.87127247 148.70491956 -382.0234375 144.80859375 C-379.69562556 142.92571802 -377.3929198 141.02399369 -375.1015625 139.09765625 C-365.74446129 131.25370244 -356.13900161 123.91769502 -346.16064453 116.8828125 C-343.9735738 115.33798064 -341.7963228 113.78019886 -339.62109375 112.21875 C-318.00619868 96.75084642 -295.33601106 82.91169826 -271.9375 70.3125 C-271.02967773 69.82168945 -270.12185547 69.33087891 -269.18652344 68.82519531 C-203.54158482 33.50500541 -130.24653799 9.80102369 -55.9375 2.3125 C-54.66829208 2.18329666 -54.66829208 2.18329666 -53.3734436 2.05148315 C-35.57870078 0.29771022 -17.87168711 -0.05025026 0 0 Z " fill="#FE4545" transform="translate(589.9375,-0.3125)"/>
<path d="M0 0 C1.40170281 0.00222385 2.80340569 0.00440029 4.20510864 0.00653076 C24.24397533 0.04869825 44.09906742 0.37490739 63.99224854 3.03710938 C66.21947558 3.33338133 68.44818677 3.61629706 70.67724609 3.8984375 C135.69635833 12.22950766 198.14572423 31.25414298 257.43359375 59.08398438 C259.80321255 60.19133224 262.18013578 61.27979914 264.5625 62.359375 C276.38617281 67.75010729 287.75071117 73.92561954 299.0625 80.3125 C300.17206055 80.93801758 301.28162109 81.56353516 302.42480469 82.20800781 C320.93841908 92.68404152 338.66005559 104.08569913 356.0625 116.3125 C356.96661621 116.94736328 357.87073242 117.58222656 358.80224609 118.23632812 C368.79918829 125.28934988 378.53628282 132.63667743 388.0625 140.3125 C389.45662109 141.43205078 389.45662109 141.43205078 390.87890625 142.57421875 C401.88425133 151.49703856 412.5870524 160.7749636 423.0625 170.3125 C423.94301025 171.10817383 424.82352051 171.90384766 425.73071289 172.72363281 C432.60571275 178.96926838 439.28314013 185.37558696 445.8371582 191.95678711 C447.38834727 193.51339389 448.94489392 195.06450171 450.50195312 196.61523438 C455.89988142 202.00957672 461.10750374 207.5049217 466.0625 213.3125 C467.53784536 214.94097017 469.0164343 216.56651517 470.5 218.1875 C474.90100329 223.07586271 479.01169809 228.13234264 483.0625 233.3125 C484.10259824 234.62260733 485.14298647 235.93248446 486.18359375 237.2421875 C539.43157778 304.59634912 577.15308707 383.9476949 610.44922256 587.58149719 C610.4372483 589.79656114 610.43031627 592.01159667 610.42440796 594.22668457 C610.35101151 618.02154789 609.61253693 641.64060986 607.0625 665.3125 C606.97764343 666.12176941 606.89278687 666.93103882 606.80535889 667.76483154 C598.31225026 748.67120579 575.81709395 826.06100741 503.52587891 974.70654297 C501.8603339 977.6725135 500.21651095 980.6499991 498.57421875 983.62890625 C485.08935456 1008.06026561 471.17417847 1032.2383198 457.0625 1056.3125 C456.05810111 1058.02713477 455.05370281 1059.74176988 454.04933167 1061.4564209 C450.48334908 1067.54383011 446.91472112 1073.62968498 443.34510803 1079.71496582 C440.78182724 1084.0850649 438.22054559 1088.45633133 435.66015625 1092.828125 C429.25035546 1103.77146485 422.8354877 1114.71146478 416.375 1125.625 C410.14412931 1136.1522228 403.97960044 1146.71756811 397.82421875 1157.2890625 C396.08297583 1160.27735966 394.33888208 1163.26397264 392.59375 1166.25 C376.5649039 1193.68059927 360.79269964 1221.24625785 345.29272461 1248.97900391 C342.47100629 1254.02485418 339.64029636 1259.06503542 336.78125 1264.08984375 C329.26625205 1277.29881473 321.99214017 1290.62265462 314.82421875 1304.02294922 C312.51109818 1308.34209925 310.18645857 1312.65498666 307.8605957 1316.96728516 C306.70120975 1319.11840355 305.5435009 1321.27042667 304.38745117 1323.42333984 C301.37292247 1329.03706406 298.33857095 1334.63852403 295.26953125 1340.22265625 C286.6886564 1355.9078091 279.03413316 1371.83978514 272.0625 1388.3125 C271.57668457 1389.4586377 271.09086914 1390.60477539 270.59033203 1391.78564453 C267.9475696 1398.03681076 265.32770016 1404.29717732 262.71875 1410.5625 C260.0765568 1416.90630215 257.40451327 1423.23702827 254.71875 1429.5625 C231.26055417 1484.8312146 208.79520291 1540.48474837 187.98779297 1596.80877686 C187.0597808 1599.31985782 186.12959553 1601.83012635 185.19921875 1604.34033203 C146.60168934 1708.60423574 114.04617047 1814.84384454 65.9074707 2002.84753418 C63.84470292 2011.30631248 61.77761867 2019.76392599 59.68667603 2028.21578979 C59.24048296 2030.02493305 58.79695202 2031.83473569 58.35653687 2033.64529419 C56.18634903 2042.56584706 53.84131197 2051.37846764 50.96875 2060.1015625 C50.61132973 2061.19406563 50.61132973 2061.19406563 50.24668884 2062.30863953 C46.10378319 2074.52425559 39.75194249 2084.45115267 28.25 2090.6875 C22.74370936 2093.26900284 18.09281606 2094.21182694 12.0625 2094.3125 C11.38316406 2094.40789063 10.70382812 2094.50328125 10.00390625 2094.6015625 C1.00718406 2095.51994246 -8.72306436 2090.53391293 -15.72265625 2085.18359375 C-35.12466434 2065.51534884 -38.55276221 2027.23729667 -44.68804932 2001.21331787 C-46.74544798 1992.49117352 -48.83468462 1983.77661657 -50.92578125 1975.0625 C-51.13688286 1974.1825021 -51.34798447 1973.3025042 -51.56548309 1972.39583969 C-72.72100886 1884.28338463 -97.32684707 1796.8721463 -132.24853516 1691.30566406 C-133.82307249 1686.65872988 -135.38105294 1682.00633084 -136.93829346 1677.35357666 C-157.04623363 1617.31330474 -179.10631252 1557.9744747 -202.9375 1499.3125 C-203.27096436 1498.49086365 -203.60442871 1497.66922729 -203.94799805 1496.82269287 C-218.49145239 1460.9940934 -233.34078993 1425.29586154 -248.5625 1389.75 C-248.92859375 1388.89452576 -249.2946875 1388.03905151 -249.671875 1387.15765381 C-251.74687832 1382.31233781 -253.83159556 1377.47138083 -255.92990112 1372.6361084 C-256.60079327 1371.08897425 -257.26984589 1369.54104111 -257.93704224 1367.99230957 C-262.70052847 1356.95178791 -267.92800746 1346.2742555 -273.625 1335.6875 C-274.42086088 1334.19791325 -275.21626342 1332.70808154 -276.01123047 1331.21801758 C-277.96027921 1327.56908067 -279.9170137 1323.92434715 -281.87774658 1320.28167725 C-282.84405234 1318.48613945 -283.80859536 1316.68965329 -284.77294922 1314.89306641 C-292.7032491 1300.1260599 -300.79269452 1285.44610926 -308.91101074 1270.78186035 C-310.57123885 1267.78292508 -312.23010914 1264.78326366 -313.88476562 1261.78125 C-320.99394906 1248.88450865 -328.20176862 1236.06324335 -335.66845703 1223.36987305 C-340.04083115 1215.91324908 -344.2612819 1208.38048297 -348.4375 1200.8125 C-354.81502141 1189.26605406 -361.38419711 1177.84648147 -368.07470703 1166.47900391 C-370.05239925 1163.11718634 -372.02498017 1159.75239547 -373.99609375 1156.38671875 C-376.8565787 1151.50302883 -379.71844361 1146.62015258 -382.58203125 1141.73828125 C-386.51557284 1135.03222551 -390.44760393 1128.32528546 -394.37911987 1121.61804199 C-395.4370002 1119.81335264 -396.49497445 1118.00871838 -397.55297852 1116.20410156 C-400.77881112 1110.70176569 -404.00418118 1105.19916069 -407.22761536 1099.69541931 C-409.04731497 1096.5884594 -410.86731194 1093.48167378 -412.6875 1090.375 C-413.0435733 1089.76725739 -413.39964661 1089.15951477 -413.76651001 1088.53335571 C-418.36918124 1080.67891556 -422.98762713 1072.83401545 -427.625 1065 C-434.44869556 1053.4682294 -441.2081347 1041.89954661 -447.9375 1030.3125 C-448.54883789 1029.2601416 -449.16017578 1028.2077832 -449.79003906 1027.12353516 C-468.31012207 995.21282413 -486.20694425 962.98892637 -503.00457764 930.13543701 C-503.9530415 928.2821318 -504.90434735 926.43030491 -505.85595703 924.57861328 C-540.66355256 856.74853877 -566.94723032 784.97983131 -586.1875 665.375 C-586.2647229 664.68035645 -586.3419458 663.98571289 -586.42150879 663.27001953 C-589.31104002 636.85954664 -590.35101458 610.48258145 -590.3125 583.9375 C-590.31214123 582.83240963 -590.31214123 582.83240963 -590.31177521 581.7049942 C-590.30183567 557.39165186 -589.57194481 533.39248246 -585.9375 509.3125 C-585.82859436 508.58144043 -585.71968872 507.85038086 -585.60748291 507.09716797 C-571.97588313 416.3355613 -536.99227329 329.21254156 -460.9375 224.3125 C-460.04515282 223.24644525 -459.15324952 222.18001885 -458.26171875 221.11328125 C-452.62301695 214.3858755 -446.85335209 207.7985547 -440.9375 201.3125 C-440.17824219 200.46042969 -439.41898438 199.60835937 -438.63671875 198.73046875 C-432.54128373 191.95249668 -426.18587736 185.45528911 -419.75 179 C-418.90655029 178.15195801 -418.06310059 177.30391602 -417.1940918 176.43017578 C-412.83371427 172.08049909 -408.40662797 167.87982032 -403.7355957 163.86547852 C-401.13645191 161.62065113 -398.63805622 159.27833279 -396.125 156.9375 C-391.55586664 152.72100096 -386.87127247 148.70491956 -382.0234375 144.80859375 C-379.69562556 142.92571802 -377.3929198 141.02399369 -375.1015625 139.09765625 C-365.74446129 131.25370244 -356.13900161 123.91769502 -346.16064453 116.8828125 C-343.9735738 115.33798064 -341.7963228 113.78019886 -339.62109375 112.21875 C-318.00619868 96.75084642 -295.33601106 82.91169826 -271.9375 70.3125 C-271.02967773 69.82168945 -270.12185547 69.33087891 -269.18652344 68.82519531 C-203.54158482 33.50500541 -130.24653799 9.80102369 -55.9375 2.3125 C-54.66829208 2.18329666 -54.66829208 2.18329666 -53.3734436 2.05148315 C-35.57870078 0.29771022 -17.87168711 -0.05025026 0 0 Z M-122.9375 87.3125 C-124.61199219 87.75529297 -124.61199219 87.75529297 -126.3203125 88.20703125 C-141.82947991 92.37964509 -156.91682988 97.6457233 -171.9375 103.3125 C-172.64632324 103.57885254 -173.35514648 103.84520508 -174.08544922 104.11962891 C-178.40881584 105.75844208 -182.68135391 107.50780821 -186.9375 109.3125 C-187.79649902 109.67504883 -188.65549805 110.03759766 -189.54052734 110.41113281 C-215.27446438 121.33702972 -240.03566467 133.8066522 -263.9375 148.3125 C-264.68918457 148.7657666 -265.44086914 149.2190332 -266.21533203 149.68603516 C-288.14193434 162.95002442 -309.29866457 177.84824652 -328.9375 194.3125 C-330.74968898 195.7712198 -332.5621969 197.22954346 -334.375 198.6875 C-339.39962363 202.79333531 -344.17204272 207.11838175 -348.91796875 211.5390625 C-351.12817196 213.59166303 -353.38902087 215.57378412 -355.67333984 217.54345703 C-359.65482187 221.02250901 -363.44237219 224.65624466 -367.18359375 228.390625 C-367.8390065 229.04270935 -368.49441925 229.6947937 -369.16969299 230.36663818 C-370.54485046 231.73677239 -371.91869255 233.10822798 -373.29125977 234.48095703 C-375.36129215 236.54880661 -377.43919673 238.60851525 -379.51757812 240.66796875 C-386.02901074 247.15197967 -392.28263317 253.63431414 -397.97729492 260.85571289 C-399.92298822 263.29431193 -401.95930652 265.60743371 -404.0546875 267.91796875 C-407.98922821 272.30080982 -411.5563616 276.89549163 -415.0625 281.625 C-416.02845093 282.92522095 -416.02845093 282.92522095 -417.01391602 284.25170898 C-418.99663325 286.93272649 -420.96871088 289.62124224 -422.9375 292.3125 C-423.52869629 293.11623047 -424.11989258 293.91996094 -424.72900391 294.74804688 C-435.1524918 308.99161496 -444.2210787 323.98331955 -452.9375 339.3125 C-453.54625977 340.38274414 -454.15501953 341.45298828 -454.78222656 342.55566406 C-469.19920095 368.12197528 -480.81822627 394.78481774 -490.9375 422.3125 C-491.45258864 423.68770102 -491.96814009 425.06272887 -492.484375 426.4375 C-498.94253079 443.97817005 -503.44531749 462.19072399 -507.9375 480.3125 C-508.14262207 481.13911133 -508.34774414 481.96572266 -508.55908203 482.81738281 C-528.03105522 563.14147894 -520.42491147 651.04585535 -502.875 730.9375 C-502.54363037 732.45283325 -502.54363037 732.45283325 -502.20556641 733.9987793 C-500.18091825 742.88813622 -497.57549427 751.59049284 -494.9375 760.3125 C-494.73121979 760.9986438 -494.52493958 761.6847876 -494.31240845 762.39172363 C-475.30287993 825.58609801 -447.84371526 885.78318474 -414.9765625 942.984375 C-411.89241673 948.35751983 -408.94166241 953.79793143 -406 959.25 C-400.72716884 968.98786876 -395.18739303 978.55444398 -389.578125 988.1015625 C-385.80470535 994.52453464 -382.08840968 1000.97970737 -378.375 1007.4375 C-373.30150906 1016.24901066 -368.17747439 1025.02792676 -362.99194336 1033.77392578 C-358.44819854 1041.43852218 -353.93951677 1049.12335943 -349.4375 1056.8125 C-344.39291837 1065.42732364 -339.33623348 1074.03467264 -334.25 1082.625 C-328.01902703 1093.15216159 -321.8545999 1103.71756905 -315.69921875 1114.2890625 C-313.95797583 1117.27735966 -312.21388208 1120.26397264 -310.46875 1123.25 C-301.90441537 1137.90653997 -293.39677286 1152.59506987 -284.9375 1167.3125 C-284.28491211 1168.4473584 -283.63232422 1169.5822168 -282.95996094 1170.75146484 C-273.78856866 1186.70818357 -264.75180994 1202.73519399 -255.85253906 1218.84570312 C-254.54820356 1221.20694282 -253.24308545 1223.56772806 -251.93652344 1225.92773438 C-243.40290159 1241.34180502 -234.92743903 1256.78562709 -226.56591797 1272.29394531 C-224.86048424 1275.45526205 -223.15108838 1278.61441657 -221.44140625 1281.7734375 C-215.739394 1292.31993433 -210.07141736 1302.88384318 -204.5 1313.5 C-204.04036865 1314.37084229 -203.5807373 1315.24168457 -203.10717773 1316.13891602 C-196.98741073 1327.85844096 -191.59507603 1339.87254458 -186.54214478 1352.08581543 C-185.13937968 1355.47553836 -183.72543889 1358.86060187 -182.3125 1362.24609375 C-182.02651443 1362.93192535 -181.74052887 1363.61775696 -181.44587708 1364.32437134 C-178.7599506 1370.75697878 -176.00939681 1377.16109994 -173.25 1383.5625 C-158.27659069 1418.41185006 -143.92784543 1453.49739262 -129.95062256 1488.75756836 C-129.06154909 1490.99966821 -128.17112423 1493.24122201 -127.27978516 1495.48242188 C-124.40276268 1502.72208545 -121.55619651 1509.97297828 -118.74169922 1517.23718262 C-118.16563989 1518.72376195 -117.58908566 1520.21014955 -117.01220703 1521.69641113 C-79.91729271 1617.280537 -45.31875155 1714.77055863 -19.25 1814 C-16.74437987 1823.44940267 -16.74437987 1823.44940267 -13.9375 1832.8125 C-10.92215722 1842.33127275 -8.47541217 1852.02116678 -5.90820312 1861.66796875 C-4.92683284 1865.35255013 -3.94053143 1869.03578199 -2.953125 1872.71875 C1.46846983 1889.22896796 5.80037552 1905.76044273 10.0625 1922.3125 C12.34469943 1921.46587557 12.34469943 1921.46587557 12.9128418 1918.76586914 C13.19297119 1917.63785889 13.47310059 1916.50984863 13.76171875 1915.34765625 C14.08027832 1914.0855835 14.39883789 1912.82351074 14.72705078 1911.52319336 C14.97699799 1910.50949173 14.97699799 1910.50949173 15.23199463 1909.47531128 C15.93095048 1906.64131586 16.64759971 1903.811895 17.36346436 1900.98213196 C17.72962842 1899.5341855 18.09489539 1898.0860119 18.45928955 1896.63761902 C20.1338473 1889.98987226 21.89462772 1883.36680807 23.6875 1876.75 C23.93975342 1875.81615479 24.19200684 1874.88230957 24.4519043 1873.92016602 C24.99015637 1871.93187336 25.53007177 1869.94403053 26.07128906 1867.95654297 C26.82643587 1865.18035549 27.57783849 1862.40325072 28.32714844 1859.62548828 C32.4232731 1844.47814042 36.71515351 1829.38947283 41.0625 1814.3125 C41.24629967 1813.67477158 41.43009933 1813.03704315 41.61946869 1812.37998962 C69.65270883 1715.13100249 101.7725837 1619.31475635 176.215271 1431.34558105 C177.12348884 1429.16614612 178.02990817 1426.9859691 178.93603516 1424.80566406 C183.82815765 1413.03763311 188.75492802 1401.2844429 193.70349121 1389.54003906 C195.14576353 1386.11475565 196.58509228 1382.68824295 198.02441406 1379.26171875 C200.3707226 1373.68022386 202.72662142 1368.10290164 205.09288025 1362.5298357 C206.37696134 1359.50514166 207.65637813 1356.47863438 208.92834473 1353.44882202 C215.13500505 1338.67600998 221.91033786 1324.52517765 229.79602051 1310.57553101 C232.49886915 1305.74589869 234.98365841 1300.80360932 237.5 1295.875 C242.12229162 1286.90420132 246.95930302 1278.08917196 251.97412109 1269.33276367 C256.51672307 1261.36591604 260.83580512 1253.29228456 265.125 1245.1875 C270.59873462 1234.85205133 276.22256656 1224.62509253 282.078125 1214.5 C285.42877407 1208.7023482 288.67994896 1202.85029574 291.9375 1197 C297.07964536 1187.78310683 302.33512788 1178.64022304 307.67578125 1169.53710938 C311.81307047 1162.47803166 315.88520963 1155.38367448 319.93002319 1148.27133179 C326.21663756 1137.21829335 332.62217461 1126.24630357 339.13012695 1115.3215332 C343.69581091 1107.64798801 348.18153263 1099.93237601 352.625 1092.1875 C358.11591132 1082.62138724 363.74012955 1073.14500969 369.43994141 1063.70214844 C374.5258067 1055.25614471 379.46322648 1046.73053636 384.36938477 1038.17919922 C388.84471672 1030.39050649 393.40309792 1022.6549677 398 1014.9375 C444.38296948 936.94873551 488.94821558 856.35729705 517.54296875 758.2890625 C518.07184702 756.27693915 518.64064153 754.27974419 519.21875 752.28125 C541.20300427 674.91871254 546.64777636 587.34434632 532.0625 508.3125 C531.88493164 507.32088867 531.70736328 506.32927734 531.52441406 505.30761719 C524.59560971 466.93365083 512.68446362 429.99767138 497.0625 394.3125 C496.57523438 393.19891113 496.08796875 392.08532227 495.5859375 390.93798828 C476.45730707 347.61087317 451.51988855 307.56144631 421.0625 271.3125 C420.61052246 270.77028809 420.15854492 270.22807617 419.69287109 269.66943359 C413.59064799 262.36102815 407.3134569 255.40847424 400.50390625 248.75390625 C398.44464834 246.69464834 396.55279295 244.6069353 394.6875 242.375 C390.19681593 237.1287743 384.99092115 232.61816591 379.88769531 227.98486328 C378.00001288 226.25524521 376.13424232 224.5045781 374.2734375 222.74609375 C367.0887892 215.95698108 359.79458273 209.47950968 352.0625 203.3125 C350.86030138 202.32104132 349.65989933 201.32740171 348.4609375 200.33203125 C338.63910408 192.20382975 328.50185015 184.62793709 318.0625 177.3125 C317.2900293 176.77093262 316.51755859 176.22936523 315.72167969 175.67138672 C290.27599617 157.90373503 263.76291171 142.30141951 236.0625 128.3125 C235.14807129 127.8498877 234.23364258 127.38727539 233.29150391 126.91064453 C172.22430429 96.26280891 103.25447848 76.70688951 35.0625 72.3125 C34.29309082 72.25610352 33.52368164 72.19970703 32.73095703 72.14160156 C-19.70637914 68.30942435 -72.18429755 73.87467952 -122.9375 87.3125 Z " fill="#D73534" transform="translate(589.9375,-0.3125)"/>
<path d="M0 0 C1.15145508 0.36085693 1.15145508 0.36085693 2.32617188 0.72900391 C36.17111346 11.39990499 64.45479384 29.68035096 90 54 C90.72574219 54.68449219 91.45148438 55.36898437 92.19921875 56.07421875 C130.78949388 93.45144005 152.50553395 149.23431565 153.40209961 202.35742188 C153.58209311 218.85521704 152.22914795 234.78693021 149 251 C148.82871582 251.88751953 148.65743164 252.77503906 148.48095703 253.68945312 C144.41086207 274.06729648 136.01877316 293.84557111 126 312 C125.66178223 312.61456055 125.32356445 313.22912109 124.97509766 313.86230469 C117.31013583 327.59432099 107.98701252 340.16036047 97.2265625 351.62109375 C95.26412685 353.71780132 93.40757701 355.86327314 91.5625 358.0625 C70.44263283 382.15768333 40.65635663 398.83113608 11 410 C9.86046875 410.44214844 8.7209375 410.88429688 7.546875 411.33984375 C-4.4607497 415.84955668 -16.75656954 418.53996585 -29.375 420.6875 C-30.0752832 420.80689941 -30.77556641 420.92629883 -31.49707031 421.04931641 C-51.54539449 424.28760346 -73.00636787 424.61659557 -93 421 C-94.3834573 420.79881259 -95.76762498 420.60246953 -97.15234375 420.41015625 C-120.72119776 417.01603304 -143.03720666 409.15292099 -164 398 C-164.66531738 397.65066406 -165.33063477 397.30132813 -166.01611328 396.94140625 C-176.35949835 391.47829791 -185.77605819 385.18434207 -195 378 C-195.95390625 377.26007813 -196.9078125 376.52015625 -197.890625 375.7578125 C-208.31960228 367.43292713 -218.59244105 358.39644387 -227 348 C-227.88626324 346.94883453 -228.77303078 345.89809415 -229.66015625 344.84765625 C-253.36727654 316.40456898 -269.44334155 281.38592933 -276 245 C-276.15243164 244.18772949 -276.30486328 243.37545898 -276.46191406 242.53857422 C-280.95767183 217.8798769 -280.55378547 191.61224423 -276 167 C-275.86609863 166.26539551 -275.73219727 165.53079102 -275.59423828 164.77392578 C-270.09008683 135.89214199 -258.00504541 107.92570343 -241 84 C-240.25234375 82.94039063 -239.5046875 81.88078125 -238.734375 80.7890625 C-226.81220642 64.44968758 -213.09293644 49.30518427 -197 37 C-196.37947754 36.51950195 -195.75895508 36.03900391 -195.11962891 35.54394531 C-140.5085251 -6.46459608 -65.99920519 -21.50153478 0 0 Z " fill="#590000" transform="translate(663,391)"/>
</svg>
